<svg width="184" height="64" viewBox="0 0 184 64" fill="none" xmlns="http://www.w3.org/2000/svg">
<path d="M92.0759 29.952C91.9352 30.1773 91.7871 30.3454 91.6316 30.4581C91.4761 30.5707 91.2761 30.6262 91.0336 30.6262C90.817 30.6262 90.5856 30.5578 90.3357 30.423C90.0876 30.2882 89.8043 30.1349 89.4896 29.965C89.1749 29.7969 88.8157 29.6455 88.4122 29.5088C88.0086 29.374 87.5476 29.3056 87.0311 29.3056C86.1388 29.3056 85.4742 29.4959 85.0373 29.8745C84.6004 30.2549 84.3819 30.7684 84.3819 31.4129C84.3819 31.8266 84.5133 32.1683 84.7762 32.4397C85.0391 32.7112 85.3835 32.9457 85.8111 33.1434C86.2388 33.3391 86.7275 33.5201 87.2773 33.6845C87.8272 33.8489 88.3881 34.0317 88.962 34.233C89.5341 34.4343 90.0968 34.6707 90.6466 34.9422C91.1965 35.2136 91.6853 35.5609 92.1129 35.982C92.5406 36.403 92.8849 36.9164 93.1478 37.5203C93.4107 38.1242 93.5421 38.8538 93.5421 39.7051C93.5421 40.6526 93.3774 41.5372 93.0497 42.3628C92.7202 43.1864 92.2443 43.9067 91.6186 44.5198C90.9947 45.133 90.2245 45.615 89.3082 45.9678C88.3918 46.3187 87.3514 46.4941 86.1869 46.4941C85.5482 46.4941 84.8984 46.4276 84.2356 46.2965C83.5729 46.1653 82.9324 45.9807 82.3122 45.7424C81.692 45.5042 81.1088 45.2198 80.5645 44.8911C80.0202 44.5623 79.5463 44.1985 79.1409 43.794L80.5498 41.5742C80.6534 41.4061 80.7978 41.2694 80.9866 41.166C81.1736 41.0626 81.3773 41.0109 81.592 41.0109C81.8734 41.0109 82.1585 41.0995 82.4454 41.2786C82.7324 41.4559 83.0564 41.6535 83.4174 41.8696C83.7784 42.0857 84.195 42.2815 84.6652 42.4606C85.1354 42.6379 85.689 42.7284 86.3276 42.7284C87.1922 42.7284 87.8642 42.5382 88.3418 42.1596C88.8213 41.781 89.0601 41.1789 89.0601 40.3534C89.0601 39.8751 88.9287 39.4872 88.6658 39.1862C88.4029 38.887 88.0586 38.6377 87.631 38.4401C87.2033 38.2443 86.7182 38.0707 86.1721 37.9193C85.6278 37.7697 85.0687 37.6035 84.4948 37.4206C83.9209 37.2378 83.3637 37.0125 82.8176 36.7465C82.2733 36.4787 81.7864 36.1278 81.3587 35.692C80.9311 35.2561 80.5868 34.7132 80.3239 34.0612C80.061 33.4093 79.9296 32.606 79.9296 31.6511C79.9296 30.8829 80.085 30.133 80.3942 29.4017C80.7052 28.6703 81.1606 28.0203 81.7604 27.4478C82.3621 26.8771 83.099 26.4191 83.9728 26.0774C84.8466 25.7357 85.8463 25.564 86.9737 25.564C87.6031 25.564 88.216 25.612 88.8121 25.7117C89.4082 25.8096 89.9747 25.9555 90.5097 26.1476C91.0447 26.3397 91.5445 26.5687 92.0111 26.8365C92.4757 27.1042 92.8923 27.4053 93.257 27.7432L92.0741 29.9502L92.0759 29.952Z" fill="#C3832F"/>
<path d="M115.522 46.2725H110.731V37.6145H102.389V44.9741C102.389 45.6907 101.806 46.2725 101.088 46.2725H97.6001V25.793H102.391V34.353H110.733V27.0913C110.733 26.3747 111.316 25.793 112.035 25.793H115.522V46.2725Z" fill="#C3832F"/>
<path d="M125.808 46.2725H122.321C121.602 46.2725 121.019 45.6907 121.019 44.9741V25.793H124.507C125.225 25.793 125.808 26.3747 125.808 27.0913V46.2725Z" fill="#C3832F"/>
<path d="M136.064 42.4772H142.372C143.09 42.4772 143.673 43.059 143.673 43.7756V46.2725H131.303V25.793H134.763C135.481 25.793 136.064 26.3747 136.064 27.0913V42.4772Z" fill="#C3832F"/>
<path d="M152.382 39.4261V46.2705H148.922C148.203 46.2705 147.62 45.6887 147.62 44.9722V25.791H154.863C156.308 25.791 157.551 25.9627 158.589 26.3044C159.628 26.6461 160.481 27.117 161.153 27.7172C161.825 28.3175 162.321 29.0248 162.64 29.8392C162.958 30.6537 163.119 31.5346 163.119 32.4821C163.119 33.5034 162.955 34.4397 162.627 35.2929C162.297 36.1462 161.796 36.8775 161.12 37.4851C160.444 38.0946 159.587 38.571 158.548 38.9127C157.51 39.2544 156.283 39.4261 154.864 39.4261H152.386H152.382ZM152.382 34.5431C152.382 35.2597 152.965 35.8414 153.683 35.8414H154.861C156.101 35.8414 156.993 35.5459 157.538 34.9568C158.082 34.3658 158.354 33.5422 158.354 32.4839C158.354 32.0148 158.284 31.5882 158.143 31.204C158.002 30.8199 157.788 30.4893 157.503 30.2123C157.216 29.9371 156.854 29.7229 156.418 29.5733C155.981 29.4237 155.462 29.348 154.861 29.348H152.382V34.5431Z" fill="#C3832F"/>
<path d="M184 46.2723H180.308C179.896 46.2723 179.555 46.1763 179.287 45.9842C179.018 45.7921 178.833 45.5465 178.729 45.2455L177.517 41.6755H169.712L168.499 45.2455C168.405 45.5077 168.221 45.7441 167.949 45.9547C167.677 46.1652 167.344 46.2705 166.948 46.2705H163.228L171.176 25.791H176.05L183.998 46.2705L184 46.2723ZM170.811 38.4436H176.419L174.531 32.8366C174.408 32.4802 174.266 32.061 174.101 31.5789C173.936 31.0969 173.775 30.5743 173.614 30.011C173.464 30.5817 173.309 31.1117 173.15 31.5993C172.99 32.0868 172.839 32.5079 172.698 32.8643L170.809 38.4436H170.811Z" fill="#C3832F"/>
<path d="M32.4588 12.9518C34.536 12.9518 36.5372 13.2769 38.4162 13.8789C39.1475 14.1135 39.9491 13.9195 40.4915 13.3766L49.2334 4.654C44.3385 1.70092 38.5977 0 32.4588 0C26.3199 0 20.5753 1.70092 15.6787 4.65585L24.4204 13.3766C24.9629 13.9177 25.7646 14.1135 26.4958 13.8789C28.3749 13.2769 30.378 12.9518 32.4588 12.9518Z" fill="#C3832F"/>
<path d="M64.9044 38.715C64.9026 38.5931 64.897 38.4712 64.8933 38.3512C64.8933 38.3031 64.8897 38.2533 64.8878 38.2053C64.8749 37.9098 64.86 37.618 64.8396 37.3244C64.8322 37.2265 64.8267 37.1286 64.8193 37.0325C64.8082 36.8959 64.7971 36.7592 64.7859 36.6225C64.7748 36.4859 64.7619 36.3511 64.7471 36.2144C64.7323 36.0777 64.7194 35.9429 64.7027 35.8063C64.6786 35.5939 64.6527 35.3833 64.6231 35.1728C64.5823 34.8773 64.5397 34.5818 64.4916 34.29C64.462 34.1034 64.4287 33.9188 64.3953 33.7323C64.362 33.5531 64.3287 33.374 64.2936 33.1967C63.2309 27.8483 60.8501 22.9763 57.503 18.9281C57.3882 18.7896 57.2716 18.651 57.155 18.5144C57.1513 18.5088 57.1456 18.5033 57.1419 18.4996C57.0087 18.3463 56.8773 18.193 56.7421 18.0416C56.3108 17.5577 55.8665 17.0868 55.4074 16.6288C55.0464 16.2686 54.6761 15.9159 54.2984 15.5724C53.4912 14.8392 52.2453 14.878 51.4734 15.6481L13.881 53.1498C12.9405 54.088 11.3669 53.8978 10.6727 52.7657C8.25119 48.8171 6.95528 44.2684 6.95528 39.5221C6.95528 36.3732 7.52551 33.3112 8.61592 30.4542C9.16761 29.0062 9.85441 27.61 10.669 26.2822C11.3651 25.1482 12.9368 24.9524 13.8791 25.8943L16.2506 28.2601C17.0522 29.0598 18.3518 29.0598 19.1553 28.2601L22.6209 24.8028L13.4404 15.6444C12.6684 14.8743 11.4224 14.8355 10.6153 15.5687C10.2376 15.9122 9.86741 16.265 9.50641 16.6251C9.25093 16.8818 8.9991 17.1403 8.75287 17.4026C8.6455 17.5171 8.53813 17.6316 8.4326 17.748C8.34559 17.8458 8.26045 17.94 8.17344 18.036C8.08643 18.1339 8.00124 18.23 7.91609 18.3279C7.74577 18.5236 7.5792 18.7212 7.41258 18.9207C7.33298 19.0186 7.25332 19.1146 7.17557 19.2125C7.11448 19.2882 7.05528 19.3621 6.99604 19.4378C6.88126 19.5819 6.76827 19.7259 6.65534 19.8737C6.56278 19.9956 6.47021 20.1193 6.37765 20.2412C6.06663 20.6604 5.76309 21.087 5.47243 21.5229C5.38542 21.6503 5.30019 21.7796 5.21689 21.9089C5.20763 21.9237 5.19839 21.9366 5.18913 21.9495C4.94847 22.3207 4.71335 22.6993 4.48749 23.0816C4.41158 23.209 4.33754 23.3365 4.26349 23.4657C4.18944 23.595 4.11725 23.7243 4.04319 23.8535C3.80068 24.2912 3.56741 24.7364 3.34525 25.1852C3.23603 25.4049 3.13051 25.6247 3.02498 25.8463C3.02313 25.8537 3.01942 25.8574 3.01757 25.8648C1.63651 28.8252 0.690471 32.0295 0.260971 35.3944C0.244309 35.5274 0.227644 35.6622 0.210982 35.797C0.17951 36.0685 0.151795 36.3418 0.127728 36.6152C0.116621 36.7352 0.107335 36.8552 0.0980788 36.9771C0.0962275 37.0011 0.0944159 37.0252 0.0925646 37.0492C0.0833082 37.1674 0.0740734 37.2837 0.0685195 37.4001C0.0666682 37.4259 0.0647663 37.4517 0.062915 37.4776C0.0555099 37.5995 0.04813 37.7214 0.0425761 37.8415V37.8525C0.0277658 38.148 0.0166255 38.4435 0.00922031 38.739C0.00181514 38.9976 0 39.258 0 39.5184C0 39.7788 0.00371343 40.0577 0.0111186 40.3273C0.0129699 40.4492 0.0185346 40.5711 0.0222372 40.6911C0.0222372 40.7391 0.0259 40.789 0.0277513 40.837C0.0407104 41.1325 0.0554773 41.4243 0.0758415 41.718C0.0832467 41.8158 0.0888657 41.9137 0.0962709 42.0097C0.107379 42.1464 0.118429 42.2831 0.129536 42.4197C0.140644 42.5564 0.153596 42.6912 0.168406 42.8279C0.183217 42.9646 0.196219 43.0994 0.212881 43.2361C0.236947 43.4484 0.262898 43.659 0.292519 43.8695C0.333247 44.165 0.37582 44.4605 0.423953 44.7523C0.453574 44.9388 0.486901 45.1235 0.520224 45.31C0.553547 45.4892 0.586835 45.6683 0.622009 45.8456C1.68465 51.194 4.06545 56.0659 7.41258 60.1142C7.52736 60.2527 7.64397 60.3912 7.76061 60.5279C7.76431 60.5334 7.76983 60.539 7.77353 60.5427C7.90683 60.696 8.0383 60.8492 8.17344 61.0007C8.60479 61.4846 9.0491 61.9555 9.50822 62.4135C9.86922 62.7736 10.2395 63.1264 10.6172 63.4699C11.4243 64.2031 12.6702 64.1643 13.4422 63.3942L51.0346 25.8925C51.975 24.9543 53.5486 25.1445 54.2429 26.2766C56.6644 30.2251 57.9603 34.7739 57.9603 39.5202C57.9603 41.9913 57.6085 44.4106 56.931 46.7173C56.4367 48.3961 54.1855 48.747 53.2413 47.2732C53.1673 47.1587 53.0933 47.0461 53.0155 46.9334C52.2953 45.8844 50.7847 45.7662 49.8849 46.6637L47.2117 49.3306L42.2946 54.2357L51.4734 63.3942C52.2453 64.1643 53.4912 64.2031 54.2984 63.4699C54.6761 63.1264 55.0464 62.7736 55.4074 62.4135C55.8665 61.9555 56.3108 61.4827 56.7421 61.0007C56.8773 60.8492 57.0087 60.696 57.1419 60.5427C57.1456 60.539 57.1513 60.5334 57.155 60.5279C57.2716 60.3912 57.3882 60.2527 57.503 60.1142C60.8501 56.0678 63.2328 51.194 64.2936 45.8456C64.3287 45.6683 64.362 45.4892 64.3953 45.31C64.4287 45.1254 64.462 44.9388 64.4916 44.7523C64.5397 44.4605 64.5823 44.165 64.6231 43.8695C64.6508 43.659 64.6768 43.4484 64.7027 43.2361C64.7175 43.0994 64.7323 42.9646 64.7471 42.8279C64.7619 42.6912 64.7748 42.5564 64.7859 42.4197C64.7971 42.2831 64.81 42.1446 64.8193 42.0097C64.8267 41.9118 64.8341 41.8158 64.8396 41.718C64.86 41.4262 64.8749 41.1325 64.8878 40.837C64.8878 40.789 64.8915 40.7391 64.8933 40.6911C64.897 40.5711 64.9007 40.4492 64.9044 40.3273C64.9119 40.0577 64.9156 39.788 64.9156 39.5184C64.9156 39.2487 64.9119 38.9791 64.9044 38.7095V38.715Z" fill="#C3832F"/>
<path d="M90.1524 63.8707H88.9232C88.7806 63.8707 88.6658 63.8356 88.5788 63.7636C88.4917 63.6934 88.4251 63.6029 88.3825 63.494L87.2829 60.6628H82.0104L80.9107 63.494C80.8718 63.5919 80.807 63.6786 80.7145 63.7562C80.6219 63.8319 80.5071 63.8707 80.3702 63.8707H79.1409L83.8395 52.1489H85.4538L90.1524 63.8707ZM82.4529 59.5196H86.8386L84.9947 54.7511C84.8743 54.4574 84.7577 54.0881 84.643 53.6467C84.5837 53.8701 84.5244 54.0752 84.467 54.2635C84.4097 54.4519 84.3542 54.6163 84.2986 54.7585L82.4547 59.5196H82.4529Z" fill="#C3832F"/>
<path d="M105.427 58.0164C105.427 58.8937 105.289 59.6933 105.009 60.4136C104.729 61.1339 104.337 61.7488 103.828 62.2623C103.319 62.7757 102.71 63.1709 101.999 63.4516C101.288 63.7323 100.501 63.8727 99.6384 63.8727H95.2434V52.1509H99.6384C100.501 52.1509 101.29 52.2912 101.999 52.5719C102.71 52.8526 103.319 53.2516 103.828 53.7669C104.337 54.2821 104.729 54.8989 105.009 55.6192C105.289 56.3394 105.427 57.1373 105.427 58.0164ZM103.796 58.0164C103.796 57.2961 103.698 56.6534 103.502 56.0864C103.306 55.5195 103.026 55.0393 102.665 54.6478C102.304 54.2544 101.867 53.9552 101.353 53.7484C100.838 53.5415 100.268 53.4381 99.6384 53.4381H96.843V62.591H99.6384C100.268 62.591 100.838 62.4876 101.353 62.2807C101.865 62.0739 102.304 61.7747 102.665 61.385C103.026 60.9953 103.304 60.517 103.502 59.95C103.7 59.3831 103.796 58.7403 103.796 58.0201V58.0164Z" fill="#C3832F"/>
<path d="M109.413 52.1509H110.683C110.826 52.1509 110.941 52.1859 111.028 52.258C111.115 52.3281 111.181 52.4186 111.224 52.5276L114.545 60.7958C114.621 60.9805 114.691 61.1837 114.754 61.4016C114.817 61.6195 114.878 61.8467 114.939 62.0794C114.989 61.8449 115.041 61.6195 115.099 61.4016C115.156 61.1837 115.223 60.9824 115.3 60.7958L118.605 52.5276C118.644 52.4353 118.709 52.3485 118.801 52.2691C118.894 52.1896 119.009 52.1509 119.146 52.1509H120.425L115.637 63.8727H114.203L109.415 52.1509H109.413Z" fill="#C3832F"/>
<path d="M127.417 63.8707H125.827V52.1489H127.417V63.8707Z" fill="#C3832F"/>
<path d="M140.191 53.9828C140.141 54.0641 140.089 54.1269 140.036 54.1675C139.98 54.2082 139.91 54.2285 139.823 54.2285C139.73 54.2285 139.621 54.1823 139.499 54.09C139.376 53.9976 139.219 53.8942 139.032 53.7834C138.843 53.6707 138.617 53.5692 138.351 53.4768C138.086 53.3845 137.764 53.3383 137.388 53.3383C137.033 53.3383 136.718 53.3863 136.446 53.4805C136.172 53.5765 135.944 53.7058 135.761 53.8683C135.578 54.0308 135.441 54.2248 135.346 54.4445C135.254 54.6662 135.207 54.9044 135.207 55.1592C135.207 55.4861 135.287 55.7576 135.45 55.9737C135.611 56.1898 135.824 56.3726 136.089 56.5259C136.353 56.6792 136.655 56.8103 136.99 56.923C137.327 57.0356 137.671 57.1502 138.023 57.2702C138.375 57.3902 138.719 57.5251 139.056 57.6746C139.393 57.8242 139.693 58.0145 139.958 58.2435C140.223 58.4725 140.435 58.7532 140.596 59.0856C140.757 59.418 140.839 59.8262 140.839 60.3119C140.839 60.8253 140.752 61.3055 140.576 61.7562C140.4 62.2068 140.145 62.5964 139.81 62.9289C139.473 63.2613 139.06 63.5235 138.571 63.7138C138.082 63.904 137.525 64 136.903 64C136.144 64 135.45 63.8615 134.824 63.5863C134.198 63.3112 133.663 62.9381 133.221 62.4709L133.68 61.7192C133.724 61.6601 133.776 61.6084 133.839 61.5678C133.902 61.5271 133.973 61.5068 134.048 61.5068C134.163 61.5068 134.295 61.5678 134.443 61.6915C134.591 61.8134 134.774 61.9482 134.996 62.0959C135.218 62.2437 135.485 62.3785 135.8 62.5004C136.115 62.6223 136.498 62.6851 136.951 62.6851C137.329 62.6851 137.664 62.6334 137.96 62.53C138.255 62.4265 138.504 62.2806 138.71 62.0922C138.915 61.9039 139.073 61.6786 139.182 61.4182C139.291 61.1578 139.347 60.8641 139.347 60.5428C139.347 60.1882 139.265 59.8982 139.104 59.6711C138.943 59.4458 138.73 59.2555 138.469 59.1022C138.206 58.949 137.908 58.8197 137.571 58.7144C137.235 58.6073 136.89 58.4984 136.538 58.3875C136.187 58.2749 135.842 58.1456 135.505 57.9997C135.168 57.8519 134.87 57.6617 134.608 57.4272C134.345 57.1926 134.134 56.899 133.973 56.5481C133.811 56.1972 133.73 55.7613 133.73 55.2442C133.73 54.8305 133.811 54.4298 133.973 54.0419C134.134 53.6541 134.367 53.3106 134.674 53.0114C134.98 52.7122 135.359 52.4721 135.809 52.2912C136.261 52.1102 136.777 52.0215 137.362 52.0215C138.018 52.0215 138.617 52.1249 139.158 52.3318C139.699 52.5386 140.173 52.8396 140.576 53.2312L140.191 53.9828Z" fill="#C3832F"/>
<path d="M157.386 58.0162C157.386 58.8935 157.247 59.7005 156.967 60.4337C156.688 61.1669 156.295 61.7985 155.786 62.3267C155.277 62.8567 154.666 63.2668 153.953 63.5586C153.241 63.8504 152.452 63.9962 151.587 63.9962C150.723 63.9962 149.936 63.8504 149.227 63.5586C148.516 63.2668 147.907 62.8567 147.398 62.3267C146.889 61.7985 146.496 61.1669 146.217 60.4337C145.937 59.7005 145.798 58.8953 145.798 58.0162C145.798 57.1371 145.937 56.3319 146.217 55.5987C146.496 54.8655 146.889 54.232 147.398 53.7002C147.907 53.1683 148.516 52.7546 149.227 52.4609C149.938 52.1673 150.725 52.0195 151.587 52.0195C152.45 52.0195 153.239 52.1673 153.953 52.4609C154.666 52.7546 155.277 53.1683 155.786 53.7002C156.295 54.232 156.688 54.8637 156.967 55.5987C157.247 56.3337 157.386 57.1371 157.386 58.0162ZM155.755 58.0162C155.755 57.296 155.657 56.6496 155.46 56.0771C155.264 55.5045 154.985 55.0206 154.624 54.6254C154.263 54.2302 153.826 53.9255 153.311 53.7131C152.796 53.5007 152.223 53.3936 151.589 53.3936C150.956 53.3936 150.39 53.5007 149.875 53.7131C149.362 53.9255 148.923 54.2302 148.559 54.6254C148.196 55.0206 147.915 55.5045 147.718 56.0771C147.522 56.6496 147.424 57.296 147.424 58.0162C147.424 58.7365 147.522 59.381 147.718 59.9498C147.915 60.5187 148.196 61.0025 148.559 61.3977C148.922 61.793 149.36 62.0959 149.875 62.3064C150.39 62.5169 150.96 62.6204 151.589 62.6204C152.219 62.6204 152.798 62.5151 153.311 62.3064C153.824 62.0959 154.263 61.793 154.624 61.3977C154.985 61.0025 155.262 60.5205 155.46 59.9498C155.657 59.3792 155.755 58.7346 155.755 58.0162Z" fill="#C3832F"/>
<path d="M164.911 58.9803V63.8707H163.328V52.1489H166.65C167.392 52.1489 168.034 52.2246 168.577 52.3742C169.117 52.5238 169.565 52.7399 169.917 53.0243C170.269 53.3087 170.53 53.6504 170.7 54.0511C170.871 54.4519 170.954 54.9007 170.954 55.3975C170.954 55.8112 170.889 56.199 170.758 56.5591C170.626 56.9193 170.436 57.2425 170.187 57.5287C169.939 57.815 169.636 58.0587 169.277 58.2601C168.919 58.4614 168.512 58.6146 168.058 58.7181C168.255 58.8326 168.431 58.9988 168.582 59.2167L172.009 63.8707H170.598C170.31 63.8707 170.095 63.7581 169.96 63.5346L166.909 59.346C166.816 59.2149 166.714 59.1207 166.605 59.0634C166.496 59.0062 166.331 58.9766 166.113 58.9766H164.908L164.911 58.9803ZM164.911 57.8279H166.576C167.04 57.8279 167.449 57.7725 167.801 57.6598C168.153 57.5472 168.449 57.3902 168.686 57.1852C168.923 56.9802 169.103 56.7364 169.223 56.4538C169.343 56.1713 169.402 55.8574 169.402 55.5138C169.402 54.8157 169.171 54.2894 168.71 53.9348C168.249 53.5802 167.56 53.4029 166.648 53.4029H164.909V57.8279H164.911Z" fill="#C3832F"/>
<path d="M183.352 53.9828C183.302 54.0641 183.25 54.1269 183.197 54.1675C183.141 54.2082 183.071 54.2285 182.984 54.2285C182.891 54.2285 182.782 54.1823 182.66 54.09C182.537 53.9976 182.38 53.8942 182.193 53.7834C182.004 53.6707 181.778 53.5692 181.512 53.4768C181.247 53.3845 180.925 53.3383 180.549 53.3383C180.194 53.3383 179.879 53.3863 179.607 53.4805C179.333 53.5765 179.105 53.7058 178.922 53.8683C178.739 54.0308 178.602 54.2248 178.507 54.4445C178.415 54.6662 178.368 54.9044 178.368 55.1592C178.368 55.4861 178.448 55.7576 178.611 55.9737C178.772 56.1898 178.985 56.3726 179.25 56.5259C179.514 56.6792 179.816 56.8103 180.151 56.923C180.488 57.0356 180.832 57.1502 181.184 57.2702C181.536 57.3902 181.88 57.5251 182.217 57.6746C182.554 57.8242 182.854 58.0145 183.119 58.2435C183.383 58.4725 183.596 58.7532 183.757 59.0856C183.919 59.418 184 59.8262 184 60.3119C184 60.8253 183.913 61.3055 183.737 61.7562C183.561 62.2068 183.306 62.5964 182.971 62.9289C182.634 63.2613 182.221 63.5235 181.732 63.7138C181.243 63.904 180.686 64 180.064 64C179.305 64 178.611 63.8615 177.985 63.5863C177.359 63.3112 176.824 62.9381 176.382 62.4709L176.841 61.7192C176.885 61.6601 176.937 61.6084 177 61.5678C177.063 61.5271 177.134 61.5068 177.209 61.5068C177.324 61.5068 177.456 61.5678 177.604 61.6915C177.752 61.8134 177.935 61.9482 178.157 62.0959C178.379 62.2437 178.646 62.3785 178.961 62.5004C179.275 62.6223 179.659 62.6851 180.112 62.6851C180.49 62.6851 180.825 62.6334 181.121 62.53C181.416 62.4265 181.666 62.2806 181.871 62.0922C182.076 61.9039 182.234 61.6786 182.343 61.4182C182.452 61.1578 182.508 60.8641 182.508 60.5428C182.508 60.1882 182.426 59.8982 182.265 59.6711C182.104 59.4458 181.891 59.2555 181.63 59.1022C181.367 58.949 181.069 58.8197 180.732 58.7144C180.396 58.6073 180.051 58.4984 179.699 58.3875C179.348 58.2749 179.003 58.1456 178.666 57.9997C178.329 57.8519 178.031 57.6617 177.768 57.4272C177.506 57.1926 177.295 56.899 177.134 56.5481C176.973 56.1972 176.891 55.7613 176.891 55.2442C176.891 54.8305 176.973 54.4298 177.134 54.0419C177.295 53.6541 177.528 53.3106 177.835 53.0114C178.141 52.7122 178.52 52.4721 178.97 52.2912C179.422 52.1102 179.938 52.0215 180.523 52.0215C181.179 52.0215 181.778 52.1249 182.319 52.3318C182.86 52.5386 183.334 52.8396 183.737 53.2312L183.352 53.9828Z" fill="#C3832F"/>
</svg>
